<?xml version="1.0" encoding="UTF-8" standalone="no"?>
<svg
   xmlns:dc="http://purl.org/dc/elements/1.1/"
   xmlns:cc="http://creativecommons.org/ns#"
   xmlns:rdf="http://www.w3.org/1999/02/22-rdf-syntax-ns#"
   xmlns:svg="http://www.w3.org/2000/svg"
   xmlns="http://www.w3.org/2000/svg"
   xmlns:sodipodi="http://sodipodi.sourceforge.net/DTD/sodipodi-0.dtd"
   xmlns:inkscape="http://www.inkscape.org/namespaces/inkscape"
   id="Layer_1"
   space="preserve"
   sodipodi:version="0.32"
   viewBox="0 0 640 480"
   version="1.1"
   sodipodi:docname="tasto_5_architetto_franc_01.svg"
   inkscape:version="0.48.4 r9939"
   width="100%"
   height="100%">
  <defs
     id="defs6110" />
  <sodipodi:namedview
     id="base"
     bordercolor="#666666"
     borderopacity="1.0"
     pagecolor="#ffffff"
     showgrid="false"
     inkscape:zoom="1.89375"
     inkscape:cx="227.06271"
     inkscape:cy="240"
     inkscape:window-width="1855"
     inkscape:window-height="1056"
     inkscape:window-x="65"
     inkscape:window-y="24"
     inkscape:window-maximized="1"
     inkscape:current-layer="g3" />
  <g
     id="g3"
     transform="translate(0,342.62101)">
    <radialGradient
       id="XMLID_2_"
       gradientUnits="userSpaceOnUse"
       cy="42.188999"
       cx="42.785999"
       r="69.833"
       gradientTransform="translate(237.98657,-269.79195)">
      <stop
         id="stop6"
         stop-color="#D1F593"
         offset="0" />
      <stop
         id="stop8"
         stop-color="#81CE09"
         offset="1" />
    </radialGradient>
    <path
       id="path10"
       d="m 294.86757,-261.31295 v 11.564 c 0,1.741 1.297,11.914 0,13.039 -1.02,0.886 -6.762,0 -8.05,0 h -18.478 c -7.957,0 -22.38,-2.722 -27.218,5.536 -3.929,6.711 -1.526,19.418 -1.526,26.711 0,8.382 -0.774,17.167 0,25.519 0,13.355 15.573,11.178 24.427,11.178 h 30.258 c 1.235,0 0.587,21.391 0.587,24.12 0,9.468 9.867,13.694 16.696,6.885 5.979,-5.956 11.956,-11.914 17.934,-17.874 12.723,-12.681 27.184,-24.79 38.705,-38.581 8.129,-8.157 -0.109,-15.919 -5.847,-21.664 -7.818,-7.824 -15.637,-15.65 -23.456,-23.475 -7.681,-7.69 -15.364,-15.38 -23.047,-23.068 -4.98,-4.985 -11.292,-11.356 -18.616,-5 -1.493,1.285 -2.366,3.107 -2.366,5.097"
       inkscape:connector-curvature="0"
       style="fill:url(#XMLID_2_)" />
    <path
       id="path12"
       d="m 239.59557,-225.52895 v 25.519 c 0,7.292 -2.404,20 1.526,26.707 4.839,8.26 19.258,5.537 27.214,5.537 h 17.257 c 1.47,0 8.123,-1.016 9.274,0 1.14,1.006 0,9.882 0,11.396 v 14.252 c 0,10.854 12.136,9.904 17.771,4.287 15.045,-14.996 30.09,-29.993 45.136,-44.991 5.456,-5.438 15.865,-12.589 13.176,-21.487 -0.317,0.598 -3.726,2.826 -4.396,3.495 -3.066,3.059 -6.136,6.117 -9.201,9.174 -8.52,8.492 -17.037,16.985 -25.555,25.477 -5.672,5.654 -11.342,11.308 -17.012,16.961 -2.447,2.439 -6.51,4.557 -9.908,2.681 -4.008,-2.21 -2.962,-8.699 -2.962,-12.543 v -15.579 c 0,-2.856 -2.156,-1.731 -4.79,-1.731 h -33.59 c -8.25,0 -16.507,-0.511 -16.507,-10.853 v -32.609 c 0,-4.972 -1.083,-11.582 0.677,-16.393 -4.732,1.342 -8.114,5.758 -8.114,10.688"
       inkscape:connector-curvature="0"
       style="fill:#67ba06" />
    <path
       id="path14"
       d="m 247.70757,-168.51195 c -2.771,-7.597 -0.677,-18.748 -0.677,-26.612 0,-8.349 -1.456,-18.099 0.173,-26.347 1.843,-9.349 18.409,-6.667 25.217,-6.667 h 29.23 c 0.768,0 -0.319,-21.606 0.808,-24.748 3.407,-9.491 12.963,0.134 16.668,3.857 15.269,15.341 30.538,30.681 45.805,46.022 1.224,1.231 5.246,3.916 6.019,5.379 2.872,-9.511 -10.045,-18.432 -15.802,-24.213 l -32.322,-32.461 c -5.208,-5.23 -12.42,-16.139 -21.006,-14.488 -11.102,2.133 -6.951,23.787 -6.951,31.819 -9.333,0 -18.663,-0.002 -27.996,-0.002 -9.16,-0.001 -27.276,-2.955 -27.276,11.18 -0.863,9.313 0,19.11 0,28.458 0,8.799 -3.183,25.591 8.112,28.823"
       inkscape:connector-curvature="0"
       style="fill:#b2ed21" />
    <path
       id="path16"
       d="m 299.44057,-268.80395 c -9.2,3.806 -5.476,22.395 -5.476,30.261 0,1.951 -23.229,0.93 -26.087,0.93 -8.576,0 -23.012,-2.757 -27.835,6.535 -3.627,6.99 -1.35,19.146 -1.35,26.616 0,8.4 -0.709,17.143 0,25.519 0,13.884 15.395,12.081 24.75,12.081 h 30.326 c 0.616,0 -0.196,23.651 0.363,26.81 1.344,7.601 11.873,10.134 17.171,4.83 1.235,-0.97 2.304,-2.297 3.414,-3.404 6.86,-6.837 13.72,-13.676 20.579,-20.514 7.706,-7.681 15.41,-15.36 23.116,-23.042 4.011,-3.997 10.436,-8.579 12.863,-13.906 3.874,-8.509 -2.996,-14.135 -8.281,-19.426 -7.462,-7.47 -14.926,-14.941 -22.389,-22.411 -7.348,-7.353 -14.693,-14.708 -22.041,-22.061 -5.328,-5.353 -10.368,-12.444 -19.115,-8.826 m -58.942,89.86 v -25.519 c 0,-7.083 -2.537,-20.456 1.757,-26.809 4.938,-7.304 19.854,-4.536 27.283,-4.536 h 17.136 c 1.448,0 7.955,0.999 9.096,0 1.124,-0.984 0,-9.795 0,-11.286 v -14.11 c 0,-6.577 10.11,-8.923 14.281,-4.749 1.512,1.514 3.024,3.027 4.536,4.539 l 46.438,46.479 c 5.123,5.13 13.199,11.335 7.847,19.468 -3.387,5.148 -9.155,9.432 -13.47,13.732 -14.601,14.553 -29.201,29.107 -43.802,43.659 -2.575,2.568 -5.353,4.298 -9.308,3.666 -6.041,-0.967 -6.522,-6.041 -6.522,-10.962 0,-3.029 1.173,-23.3 -1.004,-23.3 h -29.582 c -8.374,-0.01 -24.69,2.6 -24.69,-10.282"
       inkscape:connector-curvature="0"
       style="fill:#739b07" />
    <text
       xml:space="preserve"
       style="font-size:40px;font-style:normal;font-variant:normal;font-weight:bold;font-stretch:normal;text-align:center;line-height:125%;letter-spacing:0px;word-spacing:0px;text-anchor:middle;fill:#ff7400;fill-opacity:0.77254902;stroke:none;font-family:Purisa;-inkscape-font-specification:Sans Bold"
       x="316.39532"
       y="-58.000538"
       id="text6112"
       sodipodi:linespacing="125%"><tspan
         sodipodi:role="line"
         id="tspan6114"
         x="316.39532"
         y="-58.000538">Drag the icon</tspan><tspan
         sodipodi:role="line"
         x="316.39532"
         y="-8.0005379"
         id="tspan6116">onto the link</tspan><tspan
         sodipodi:role="line"
         x="316.39532"
         y="41.999462"
         id="tspan6118">to install WSJT-X</tspan></text>
  </g>
  <metadata
     id="metadata6108">
    <rdf:RDF>
      <cc:Work>
        <dc:format>image/svg+xml</dc:format>
        <dc:type
           rdf:resource="http://purl.org/dc/dcmitype/StillImage" />
        <cc:license
           rdf:resource="http://creativecommons.org/licenses/publicdomain/" />
        <dc:publisher>
          <cc:Agent
             rdf:about="http://openclipart.org/">
            <dc:title>Openclipart</dc:title>
          </cc:Agent>
        </dc:publisher>
        <dc:title></dc:title>
        <dc:date>2010-03-28T09:25:56</dc:date>
        <dc:description>Drawing by Francesco 'Architetto' Rollandin. From OCAL 0.18 release.</dc:description>
        <dc:source>http://openclipart.org/detail/34711/architetto----tasto-5-by-anonymous</dc:source>
        <dc:creator>
          <cc:Agent>
            <dc:title>Anonymous</dc:title>
          </cc:Agent>
        </dc:creator>
        <dc:subject>
          <rdf:Bag>
            <rdf:li>arrow</rdf:li>
            <rdf:li>clip art</rdf:li>
            <rdf:li>clipart</rdf:li>
            <rdf:li>green</rdf:li>
            <rdf:li>icon</rdf:li>
            <rdf:li>right</rdf:li>
            <rdf:li>sign</rdf:li>
            <rdf:li>symbol</rdf:li>
          </rdf:Bag>
        </dc:subject>
      </cc:Work>
      <cc:License
         rdf:about="http://creativecommons.org/licenses/publicdomain/">
        <cc:permits
           rdf:resource="http://creativecommons.org/ns#Reproduction" />
        <cc:permits
           rdf:resource="http://creativecommons.org/ns#Distribution" />
        <cc:permits
           rdf:resource="http://creativecommons.org/ns#DerivativeWorks" />
      </cc:License>
    </rdf:RDF>
  </metadata>
</svg>
