<?xml version="1.0" encoding="UTF-8" standalone="no"?>
<!-- Created with Inkscape (http://www.inkscape.org/) -->

<svg
   xmlns:dc="http://purl.org/dc/elements/1.1/"
   xmlns:cc="http://creativecommons.org/ns#"
   xmlns:rdf="http://www.w3.org/1999/02/22-rdf-syntax-ns#"
   xmlns:svg="http://www.w3.org/2000/svg"
   xmlns="http://www.w3.org/2000/svg"
   xmlns:xlink="http://www.w3.org/1999/xlink"
   xmlns:sodipodi="http://sodipodi.sourceforge.net/DTD/sodipodi-0.dtd"
   xmlns:inkscape="http://www.inkscape.org/namespaces/inkscape"
   width="2700"
   height="1024"
   viewBox="0 0 714.37499 270.93334"
   version="1.1"
   id="svg8"
   inkscape:version="0.92.1 r15371"
   sodipodi:docname="installer_logo.svg"
   inkscape:export-filename="C:\Users\me\JTDX_1024x1024.png"
   inkscape:export-xdpi="96"
   inkscape:export-ydpi="96">
  <defs
     id="defs2">
    <linearGradient
       inkscape:collect="always"
       id="linearGradient5036">
      <stop
         style="stop-color:#1a1a1a;stop-opacity:1;"
         offset="0"
         id="stop5032" />
      <stop
         style="stop-color:#1a1a1a;stop-opacity:0;"
         offset="1"
         id="stop5034" />
    </linearGradient>
    <linearGradient
       inkscape:collect="always"
       xlink:href="#linearGradient5036"
       id="linearGradient5038"
       x1="2.6726952"
       y1="136.22949"
       x2="663.67426"
       y2="135.03178"
       gradientUnits="userSpaceOnUse" />
  </defs>
  <sodipodi:namedview
     id="base"
     pagecolor="#ffffff"
     bordercolor="#666666"
     borderopacity="1.0"
     inkscape:pageopacity="0.0"
     inkscape:pageshadow="2"
     inkscape:zoom="0.24748737"
     inkscape:cx="589.31264"
     inkscape:cy="637.91789"
     inkscape:document-units="mm"
     inkscape:current-layer="layer2"
     showgrid="false"
     inkscape:window-width="1680"
     inkscape:window-height="1027"
     inkscape:window-x="-8"
     inkscape:window-y="-8"
     inkscape:window-maximized="1"
     units="px">
    <inkscape:grid
       type="xygrid"
       id="grid4544" />
  </sodipodi:namedview>
  <metadata
     id="metadata5">
    <rdf:RDF>
      <cc:Work
         rdf:about="">
        <dc:format>image/svg+xml</dc:format>
        <dc:type
           rdf:resource="http://purl.org/dc/dcmitype/StillImage" />
        <dc:title></dc:title>
      </cc:Work>
    </rdf:RDF>
  </metadata>
  <g
     inkscape:groupmode="layer"
     id="layer2"
     inkscape:label="Layer 3">
    <rect
       style="opacity:1;fill:url(#linearGradient5038);fill-opacity:1;stroke-width:0.2935558"
       id="rect5030"
       width="713.07507"
       height="270.47675"
       x="0.52916664"
       y="0.45657152" />
    <text
       xml:space="preserve"
       style="font-style:normal;font-weight:normal;font-size:10.58333302px;line-height:1.25;font-family:sans-serif;letter-spacing:0px;word-spacing:0px;fill:#ff0000;fill-opacity:1;stroke:none;stroke-width:0.26458332"
       x="36.285713"
       y="41.12381"
       id="text5042"><tspan
         sodipodi:role="line"
         id="tspan5040"
         x="36.285713"
         y="50.779305"
         style="fill:#ff0000;stroke-width:0.26458332" /></text>
    <text
       xml:space="preserve"
       style="font-style:normal;font-variant:normal;font-weight:bold;font-stretch:normal;font-size:158.75px;line-height:1.25;font-family:Arial;-inkscape-font-specification:'Arial, Bold';font-variant-ligatures:normal;font-variant-caps:normal;font-variant-numeric:normal;font-feature-settings:normal;text-align:start;letter-spacing:0px;word-spacing:0px;writing-mode:lr;text-anchor:start;fill:#ff0000;fill-opacity:1;stroke:none;stroke-width:3.64339542;"
       x="13.134339"
       y="192.9391"
       id="text5050"
       transform="scale(1.0315184,0.96944465)"><tspan
         sodipodi:role="line"
         id="tspan5048"
         x="13.134339"
         y="192.9391"
         style="font-style:normal;font-variant:normal;font-weight:bold;font-stretch:normal;font-size:158.75px;font-family:Arial;-inkscape-font-specification:'Arial, Bold';font-variant-ligatures:normal;font-variant-caps:normal;font-variant-numeric:normal;font-feature-settings:normal;text-align:start;writing-mode:lr;text-anchor:start;fill:#ff0000;stroke-width:3.64339542;">J</tspan></text>
    <text
       xml:space="preserve"
       style="font-style:normal;font-variant:normal;font-weight:bold;font-stretch:normal;font-size:153.0067749px;line-height:1.25;font-family:Arial;-inkscape-font-specification:'Arial, Bold';font-variant-ligatures:normal;font-variant-caps:normal;font-variant-numeric:normal;font-feature-settings:normal;text-align:start;letter-spacing:0px;word-spacing:0px;writing-mode:lr-tb;text-anchor:start;fill:#ff0000;fill-opacity:1;stroke:none;stroke-width:2.34666467"
       x="112.94827"
       y="186.55544"
       id="text5054"
       transform="scale(0.99492983,1.005096)"><tspan
         sodipodi:role="line"
         id="tspan5052"
         x="112.94827"
         y="186.55544"
         style="font-style:normal;font-variant:normal;font-weight:bold;font-stretch:normal;font-size:153.0067749px;font-family:Arial;-inkscape-font-specification:'Arial, Bold';font-variant-ligatures:normal;font-variant-caps:normal;font-variant-numeric:normal;font-feature-settings:normal;text-align:start;writing-mode:lr-tb;text-anchor:start;fill:#ff0000;stroke-width:2.34666467">T</tspan></text>
    <text
       xml:space="preserve"
       style="font-style:normal;font-variant:normal;font-weight:bold;font-stretch:normal;font-size:158.75px;line-height:1.25;font-family:Arial;-inkscape-font-specification:'Arial, Bold';font-variant-ligatures:normal;font-variant-caps:normal;font-variant-numeric:normal;font-feature-settings:normal;text-align:start;letter-spacing:0px;word-spacing:0px;writing-mode:lr-tb;text-anchor:start;fill:#ff0000;fill-opacity:1;stroke:none;stroke-width:2.35875773"
       x="548.31354"
       y="177.13139"
       id="text5058"
       transform="scale(0.90131372,1.1094916)"><tspan
         sodipodi:role="line"
         id="tspan5056"
         x="548.31354"
         y="177.13139"
         style="font-style:normal;font-variant:normal;font-weight:bold;font-stretch:normal;font-size:158.75px;font-family:Arial;-inkscape-font-specification:'Arial, Bold';font-variant-ligatures:normal;font-variant-caps:normal;font-variant-numeric:normal;font-feature-settings:normal;text-align:start;writing-mode:lr-tb;text-anchor:start;fill:#ff0000;stroke-width:2.35875773">D</tspan></text>
    <text
       xml:space="preserve"
       style="font-style:normal;font-variant:normal;font-weight:bold;font-stretch:normal;font-size:158.75px;line-height:1.25;font-family:Arial;-inkscape-font-specification:'Arial, Bold';font-variant-ligatures:normal;font-variant-caps:normal;font-variant-numeric:normal;font-feature-settings:normal;text-align:start;letter-spacing:0px;word-spacing:0px;writing-mode:lr-tb;text-anchor:start;fill:#ff0000;fill-opacity:1;stroke:none;stroke-width:2.40164328"
       x="644.72302"
       y="182.74606"
       id="text5062"
       transform="scale(0.93630066,1.068033)"><tspan
         sodipodi:role="line"
         id="tspan5060"
         x="644.72302"
         y="182.74606"
         style="font-style:normal;font-variant:normal;font-weight:bold;font-stretch:normal;font-size:158.75px;font-family:Arial;-inkscape-font-specification:'Arial, Bold';font-variant-ligatures:normal;font-variant-caps:normal;font-variant-numeric:normal;font-feature-settings:normal;text-align:start;writing-mode:lr-tb;text-anchor:start;fill:#ff0000;stroke-width:2.40164328">X</tspan></text>
  </g>
  <g
     inkscape:groupmode="layer"
     id="layer4"
     inkscape:label="Layer 2"
     style="display:inline"
     transform="translate(0,-26.066643)">
    <ellipse
       style="opacity:1;fill:#ffffff;fill-opacity:1;stroke-width:0.347929"
       id="path5194"
       cx="350.64569"
       cy="161.78789"
       rx="135.44717"
       ry="135.41121"
       inkscape:export-xdpi="95.756973"
       inkscape:export-ydpi="95.756973" />
  </g>
  <g
     inkscape:label="Layer 1"
     inkscape:groupmode="layer"
     id="layer1"
     transform="translate(0,-26.066643)"
     style="display:inline">
    <path
       id="path3680"
       style="fill:none;stroke:#000000;stroke-width:0.27786008px;stroke-linecap:butt;stroke-linejoin:miter;stroke-opacity:1"
       d="M 350.17972,27.626003 319.6379,132.49707 216.90637,161.09843 319.6379,188.90522 350.17972,294.57085 380.72153,188.90522 485.03964,161.09843 379.33326,133.2917 Z"
       inkscape:connector-curvature="0"
       sodipodi:nodetypes="ccccccccc" />
    <path
       style="fill:none;stroke:#000000;stroke-width:0.27786008px;stroke-linecap:butt;stroke-linejoin:miter;stroke-opacity:1"
       d="M 350.17972,27.626003 V 294.57085"
       id="path3682"
       inkscape:connector-curvature="0"
       sodipodi:nodetypes="cc" />
    <path
       style="fill:none;stroke:#000000;stroke-width:0.27786008px;stroke-linecap:butt;stroke-linejoin:miter;stroke-opacity:1"
       d="M 216.90637,161.09843 H 485.03976"
       id="path3684"
       inkscape:connector-curvature="0"
       sodipodi:nodetypes="cc" />
    <path
       style="fill:none;stroke:#000000;stroke-width:0.27786008px;stroke-linecap:butt;stroke-linejoin:miter;stroke-opacity:1"
       d="M 422.36953,94.362223 277.99,227.83465 Z"
       id="path3686"
       inkscape:connector-curvature="0"
       sodipodi:nodetypes="ccc" />
    <path
       style="fill:none;stroke:#000000;stroke-width:0.27786008px;stroke-linecap:butt;stroke-linejoin:miter;stroke-opacity:1"
       d="M 277.99,94.362223 422.36953,227.83465"
       id="path3688"
       inkscape:connector-curvature="0"
       sodipodi:nodetypes="cc" />
    <path
       style="fill:none;stroke:#000000;stroke-width:0.27786008px;stroke-linecap:butt;stroke-linejoin:miter;stroke-opacity:1"
       d="m 277.99,94.362223 48.58928,15.293667"
       id="path3693"
       inkscape:connector-curvature="0"
       sodipodi:nodetypes="cc" />
    <path
       style="fill:none;stroke:#000000;stroke-width:0.27786008px;stroke-linecap:butt;stroke-linejoin:miter;stroke-opacity:1"
       d="m 277.99,94.362223 18.04745,44.490807"
       id="path3707"
       inkscape:connector-curvature="0"
       sodipodi:nodetypes="cc" />
    <path
       style="fill:none;stroke:#000000;stroke-width:0.27786008px;stroke-linecap:butt;stroke-linejoin:miter;stroke-opacity:1"
       d="M 372.39201,109.65589 422.36953,94.362223 404.32207,140.24335"
       id="path3709"
       inkscape:connector-curvature="0"
       sodipodi:nodetypes="ccc" />
    <path
       style="fill:none;stroke:#000000;stroke-width:0.27786008px;stroke-linecap:butt;stroke-linejoin:miter;stroke-opacity:1"
       d="m 277.99,227.83465 48.58928,-15.29379"
       id="path3711"
       inkscape:connector-curvature="0"
       sodipodi:nodetypes="cc" />
    <path
       style="fill:none;stroke:#000000;stroke-width:0.27786008px;stroke-linecap:butt;stroke-linejoin:miter;stroke-opacity:1"
       d="m 277.99,227.83465 18.04745,-45.88114"
       id="path3713"
       inkscape:connector-curvature="0"
       sodipodi:nodetypes="cc" />
    <path
       style="fill:none;stroke:#000000;stroke-width:0.27786008px;stroke-linecap:butt;stroke-linejoin:miter;stroke-opacity:1"
       d="m 404.04443,182.50963 c -0.27768,-0.55596 5.83072,14.73755 18.3251,45.32502 l -48.58924,-15.29379"
       id="path3715"
       inkscape:connector-curvature="0"
       sodipodi:nodetypes="ccc" />
    <path
       style="opacity:0.75;fill:#0000ff;stroke-width:0.35559803"
       d="m 334.7266,146.40769 c -8.13459,-7.54006 -14.76738,-13.80014 -14.73958,-13.91116 0.17868,-0.71312 6.28834,-21.6947 6.56787,-22.555 0.19026,-0.58546 5.39803,-18.467728 11.57284,-39.738553 6.17482,-21.270824 11.37101,-39.073316 11.54714,-39.561176 0.19162,-0.530448 0.33144,25.301334 0.34828,64.309175 0.016,35.857844 -0.0921,65.189304 -0.23915,65.181094 -0.14702,-0.007 -6.92286,-6.18415 -15.05743,-13.72438 z"
       id="path915"
       inkscape:connector-curvature="0" />
    <path
       style="opacity:0.75;fill:#0000ff;stroke-width:0.35559803"
       d="m 339.18146,150.26704 c -5.68442,-5.23188 -12.2939,-11.41592 -14.68775,-13.74246 l -4.35246,-4.23002 11.55865,-39.561246 c 6.35727,-21.758594 12.96674,-44.41002 14.68775,-50.336336 l 3.12907,-10.775091 0.17821,31.531503 c 0.098,17.342246 0.098,46.17771 0,64.07878 l -0.17821,32.5474 z"
       id="path917"
       inkscape:connector-curvature="0" />
    <path
       style="opacity:0.75;fill:#0000ff;stroke-width:0.35559803"
       d="m 339.62058,150.56624 c -5.24686,-4.84964 -11.75958,-10.94467 -14.4727,-13.54457 l -4.93294,-4.72711 14.47272,-49.596257 14.47268,-49.596346 0.22183,6.487 c 0.28606,8.365892 0.28303,103.233403 -0.004,112.636893 l -0.21818,7.15793 z"
       id="path919"
       inkscape:connector-curvature="0" />
    <path
       style="opacity:1;fill:#0000ff;fill-opacity:1;stroke-width:0.35559803"
       d="m 308.17561,185.50765 c -5.88042,-1.61702 -11.01241,-3.05584 -11.40444,-3.19743 -0.39199,-0.14204 -0.96851,-0.29354 -1.28109,-0.33741 -0.31253,-0.0398 -17.31868,-4.61353 -37.79137,-10.15444 l -37.22306,-10.07447 32.2065,-0.0903 c 17.71358,-0.0479 46.6366,-0.0479 64.27336,0 l 32.06687,0.0903 -14.4982,13.39413 c -7.97399,7.36674 -14.75889,13.37497 -15.07755,13.35176 -0.31868,-0.0239 -5.3906,-1.36511 -11.27102,-2.98198 z"
       id="path921"
       inkscape:connector-curvature="0" />
    <path
       style="opacity:1;fill:#0000ff;fill-opacity:1;stroke-width:0.35559803"
       d="m 350.43586,227.08723 -0.0279,-65.22631 1.5432,1.36066 c 0.84876,0.7474 7.56896,6.93216 14.93377,13.74173 l 13.39055,12.38109 -0.47869,1.63386 c -0.26332,0.89865 -6.90896,23.9071 -14.76818,51.12977 -7.85921,27.22274 -14.35134,49.65551 -14.42693,49.85071 -0.0758,0.19474 -0.15011,-28.99707 -0.16568,-64.87151 z"
       id="path929"
       inkscape:connector-curvature="0" />
    <path
       style="opacity:1;fill:#0000ff;fill-opacity:1;stroke-width:0.35559803"
       d="m 352.19559,159.6686 c 1.77133,-1.69525 26.41537,-24.40666 27.31904,-25.17657 0.73453,-0.62616 1.95587,-0.32463 51.48739,12.69571 27.90424,7.33523 50.8954,13.39899 51.09142,13.47484 0.19601,0.0716 -29.23013,0.15086 -65.39144,0.16669 l -65.74784,0.024 z"
       id="path931"
       inkscape:connector-curvature="0" />
    <path
       style="opacity:1;fill:#0000ff;stroke-width:0.35559803"
       d="m 379.1297,131.35539 c -2.65871,-9.29742 -5.87063,-21.39686 -5.71985,-21.54706 0.26117,-0.25923 46.99596,-14.564381 47.13426,-14.426622 0.0917,0.09091 -37.50365,34.976202 -40.10705,37.215392 -0.76364,0.65729 -0.76467,0.6565 -1.30736,-1.24171 z"
       id="path933"
       inkscape:connector-curvature="0" />
    <path
       style="opacity:1;fill:#0000ff;stroke-width:0.35559803"
       d="m 401.03982,207.74006 c -10.66906,-9.89735 -19.45322,-18.15907 -19.52026,-18.35942 -0.15435,-0.46027 21.97456,-6.33523 22.3523,-5.93336 0.27512,0.29276 16.68353,40.53058 17.01222,41.71861 0.0946,0.3414 0.0335,0.60941 -0.13704,0.59426 -0.16992,-0.0159 -9.03809,-8.12364 -19.70719,-18.02081 z"
       id="path935"
       inkscape:connector-curvature="0" />
    <path
       style="opacity:1;fill:#0000ff;stroke-width:0.35559803"
       d="m 281.45068,225.1182 c 0.97774,-0.95329 9.94978,-9.27684 19.93788,-18.49679 11.46603,-10.58436 18.22133,-16.58311 18.32605,-16.27362 0.0911,0.26961 1.56566,5.33127 3.27655,11.24802 2.085,7.21049 2.97559,10.80692 2.70092,10.9066 -1.16418,0.42357 -45.61512,14.34888 -45.80085,14.34888 -0.12003,0 0.58172,-0.78012 1.55945,-1.73309 z"
       id="path937"
       inkscape:connector-curvature="0" />
    <path
       style="opacity:1;fill:#0000ff;stroke-width:0.35559803"
       d="m 295.90987,137.70543 c -0.16999,-0.43951 -4.02612,-9.95468 -8.5692,-21.14567 -4.54308,-11.19105 -8.20894,-20.395137 -8.14635,-20.453375 0.0626,-0.05586 8.95225,8.060155 19.75483,18.041005 14.95962,13.82174 19.50418,18.2093 19.06681,18.40785 -0.74537,0.33821 -20.96272,5.94848 -21.43638,5.94848 -0.19839,0 -0.49967,-0.35974 -0.66974,-0.79797 z"
       id="path939"
       inkscape:connector-curvature="0" />
    <path
       style="opacity:0;fill:#ffffff;stroke-width:0.35559803"
       d="m 347.55658,157.92717 c -14.72217,-13.42245 -27.08554,-25.29401 -27.08554,-26.00809 0,-0.50809 3.2902,-11.88997 18.76337,-64.909463 8.86351,-30.371208 9.71801,-33.263293 9.8742,-33.418759 0.55831,-0.555983 0.79195,100.166202 0.27393,118.105492 l -0.22208,7.69293 z"
       id="path953"
       inkscape:connector-curvature="0" />
    <path
       style="opacity:0.3;fill:#0000ff;stroke-width:0.35559803"
       d="m 350.43586,95.145907 c 0.016,-35.769949 0.0924,-64.876759 0.17158,-64.681578 0.17964,0.444301 21.45081,77.538191 21.7027,78.657931 0.10139,0.45067 1.68652,6.20201 3.52253,12.78081 l 3.33819,11.96153 -13.90732,12.87517 c -7.64904,7.08125 -14.12073,13.00279 -14.38158,13.15889 -0.39415,0.23612 -0.46953,-10.708 -0.44608,-64.752753 z"
       id="path955"
       inkscape:connector-curvature="0" />
    <path
       style="opacity:0.3;fill:#0000ff;stroke-width:0.35559803"
       d="m 392.81799,136.52265 c -6.17443,-1.62906 -11.44237,-3.00736 -11.70651,-3.06286 -0.2642,-0.0558 8.62925,-8.51706 19.76318,-18.80373 11.13386,-10.28659 20.29027,-18.656334 20.3475,-18.599364 0.13227,0.131629 -16.65077,42.901704 -16.9532,43.203614 -0.12357,0.12281 -5.27653,-1.10851 -11.45097,-2.73766 z"
       id="path957"
       inkscape:connector-curvature="0" />
    <path
       style="opacity:0.3;fill:#0000ff;stroke-width:0.35559803"
       d="m 365.75879,175.12566 -14.40741,-13.38192 32.7006,-0.0903 c 17.98535,-0.0479 47.25525,-0.0479 65.04429,0 l 32.34365,0.0903 -49.88256,13.30534 c -27.43543,7.31793 -50.22201,13.33983 -50.63687,13.38185 -0.55113,0.0558 -4.63462,-3.52767 -15.1617,-13.30527 z"
       id="path959"
       inkscape:connector-curvature="0" />
    <path
       style="opacity:0.3;fill:#0000ff;stroke-width:0.35559803"
       d="m 397.45106,219.6956 c -12.4469,-3.91598 -22.74418,-7.2223 -22.88288,-7.3472 -0.21075,-0.18975 5.87153,-21.9009 6.2376,-22.26533 0.0971,-0.0972 35.80515,32.70453 39.08967,35.90729 0.48556,0.47302 0.72615,0.85287 0.53462,0.84305 -0.19162,-0.007 -10.5321,-3.22183 -22.97899,-7.13781 z"
       id="path961"
       inkscape:connector-curvature="0" />
    <path
       style="opacity:0.3;fill:#0000ff;stroke-width:0.35559803"
       d="m 349.78215,292.03483 c -0.0479,-0.15311 -6.74386,-23.30127 -14.87979,-51.43972 l -14.79256,-51.16096 1.33889,-1.30491 c 0.73636,-0.7179 7.43312,-6.92857 14.88165,-13.80188 l 13.54277,-12.49684 0.0911,32.71586 c 0.0937,33.63332 -0.0263,97.98492 -0.18187,97.48845 z"
       id="path963"
       inkscape:connector-curvature="0" />
    <path
       style="opacity:0.3;fill:#0000ff;stroke-width:0.35559803"
       d="m 279.12991,226.00128 c 0,-0.22096 16.76352,-42.91591 16.90851,-43.06459 0.15955,-0.1635 23.00706,6.11115 23.00706,6.31854 0,0.18749 -35.70851,33.31673 -38.54519,35.76086 -0.7537,0.65011 -1.37038,1.0928 -1.37038,0.98519 z"
       id="path965"
       inkscape:connector-curvature="0" />
    <path
       style="opacity:0.3;fill:#0000ff;stroke-width:0.35559803"
       d="m 220.32573,160.4926 c 0.97792,-0.33742 97.47326,-27.17552 98.40593,-27.36887 0.35975,-0.0716 5.84976,4.75926 14.57327,12.83098 7.69788,7.12281 14.49464,13.38312 15.10396,13.91189 l 1.10783,0.96126 -65.04097,-0.0158 c -37.24796,-0.007 -64.66027,-0.14519 -64.15002,-0.32224 z"
       id="path967"
       inkscape:connector-curvature="0" />
    <path
       style="opacity:0.3;fill:#0000ff;stroke-width:0.35559803"
       d="m 299.38862,113.72949 c -10.9093,-10.08423 -19.79856,-18.373227 -19.75392,-18.419817 0.12941,-0.135699 45.61644,14.183827 45.9362,14.460297 0.26205,0.22653 -5.66004,21.4925 -6.14177,22.05485 -0.11296,0.1323 -9.13123,-8.01095 -20.04051,-18.09533 z"
       id="path969"
       inkscape:connector-curvature="0" />
  </g>
</svg>
