<?xml version="1.0" encoding="UTF-8" standalone="no"?>
<!-- Created with Inkscape (http://www.inkscape.org/) -->

<svg
   xmlns:dc="http://purl.org/dc/elements/1.1/"
   xmlns:cc="http://creativecommons.org/ns#"
   xmlns:rdf="http://www.w3.org/1999/02/22-rdf-syntax-ns#"
   xmlns:svg="http://www.w3.org/2000/svg"
   xmlns="http://www.w3.org/2000/svg"
   xmlns:sodipodi="http://sodipodi.sourceforge.net/DTD/sodipodi-0.dtd"
   xmlns:inkscape="http://www.inkscape.org/namespaces/inkscape"
   width="1024"
   height="1024"
   viewBox="0 0 270.93333 270.93334"
   version="1.1"
   id="svg8"
   inkscape:version="0.92.1 r15371"
   sodipodi:docname="JTDX_1024x1024.svg"
   inkscape:export-filename="C:\Users\me\JTDX_1024x1024.png"
   inkscape:export-xdpi="96"
   inkscape:export-ydpi="96">
  <defs
     id="defs2" />
  <sodipodi:namedview
     id="base"
     pagecolor="#ffffff"
     bordercolor="#666666"
     borderopacity="1.0"
     inkscape:pageopacity="0.0"
     inkscape:pageshadow="2"
     inkscape:zoom="0.35"
     inkscape:cx="855.35144"
     inkscape:cy="159.13011"
     inkscape:document-units="mm"
     inkscape:current-layer="layer1"
     showgrid="false"
     inkscape:window-width="1680"
     inkscape:window-height="1027"
     inkscape:window-x="-8"
     inkscape:window-y="-8"
     inkscape:window-maximized="1"
     units="px">
    <inkscape:grid
       type="xygrid"
       id="grid4544" />
  </sodipodi:namedview>
  <metadata
     id="metadata5">
    <rdf:RDF>
      <cc:Work
         rdf:about="">
        <dc:format>image/svg+xml</dc:format>
        <dc:type
           rdf:resource="http://purl.org/dc/dcmitype/StillImage" />
        <dc:title />
      </cc:Work>
    </rdf:RDF>
  </metadata>
  <g
     inkscape:groupmode="layer"
     id="layer4"
     inkscape:label="Layer 2"
     style="display:inline"
     transform="translate(0,-26.06664)">
    <ellipse
       style="opacity:1;fill:#ffffff;fill-opacity:1;stroke-width:0.34895852"
       id="path5194"
       cx="135.68224"
       cy="161.61128"
       rx="135.82028"
       ry="135.83961"
       inkscape:export-xdpi="95.756973"
       inkscape:export-ydpi="95.756973" />
  </g>
  <g
     inkscape:label="Layer 1"
     inkscape:groupmode="layer"
     id="layer1"
     transform="translate(0,-26.06664)"
     style="display:inline">
    <path
       id="path3680"
       style="fill:none;stroke:#000000;stroke-width:0.27907065px;stroke-linecap:butt;stroke-linejoin:miter;stroke-opacity:1"
       d="M 135.40357,26.648256 104.73495,131.99769 1.5769015,160.72953 104.73495,188.66314 135.40357,294.8108 166.07218,188.66314 270.8234,160.72949 164.67816,132.79591 Z"
       inkscape:connector-curvature="0"
       sodipodi:nodetypes="ccccccccc" />
    <path
       style="fill:none;stroke:#000000;stroke-width:0.27907065px;stroke-linecap:butt;stroke-linejoin:miter;stroke-opacity:1"
       d="M 135.40357,26.648256 V 294.8108"
       id="path3682"
       inkscape:connector-curvature="0"
       sodipodi:nodetypes="cc" />
    <path
       style="fill:none;stroke:#000000;stroke-width:0.27907068px;stroke-linecap:butt;stroke-linejoin:miter;stroke-opacity:1"
       d="m 1.5769015,160.72953 269.2466085,-4e-5"
       id="path3684"
       inkscape:connector-curvature="0"
       sodipodi:nodetypes="cc" />
    <path
       style="fill:none;stroke:#000000;stroke-width:0.27907068px;stroke-linecap:butt;stroke-linejoin:miter;stroke-opacity:1"
       d="M 207.89309,93.688891 62.914146,227.77014 Z"
       id="path3686"
       inkscape:connector-curvature="0"
       sodipodi:nodetypes="ccc" />
    <path
       style="fill:none;stroke:#000000;stroke-width:0.27907068px;stroke-linecap:butt;stroke-linejoin:miter;stroke-opacity:1"
       d="M 62.914146,93.688891 207.89309,227.77014"
       id="path3688"
       inkscape:connector-curvature="0"
       sodipodi:nodetypes="cc" />
    <path
       style="fill:none;stroke:#000000;stroke-width:0.27907068px;stroke-linecap:butt;stroke-linejoin:miter;stroke-opacity:1"
       d="M 62.914146,93.688891 111.70515,109.05238"
       id="path3693"
       inkscape:connector-curvature="0"
       sodipodi:nodetypes="cc" />
    <path
       style="fill:none;stroke:#000000;stroke-width:0.27907068px;stroke-linecap:butt;stroke-linejoin:miter;stroke-opacity:1"
       d="M 62.914146,93.688891 81.036517,138.38266"
       id="path3707"
       inkscape:connector-curvature="0"
       sodipodi:nodetypes="cc" />
    <path
       style="fill:none;stroke:#000000;stroke-width:0.27907068px;stroke-linecap:butt;stroke-linejoin:miter;stroke-opacity:1"
       d="M 157.70808,109.05238 207.89309,93.688891 189.77071,139.77935"
       id="path3709"
       inkscape:connector-curvature="0"
       sodipodi:nodetypes="ccc" />
    <path
       style="fill:none;stroke:#000000;stroke-width:0.27907068px;stroke-linecap:butt;stroke-linejoin:miter;stroke-opacity:1"
       d="M 62.914146,227.77014 111.70515,212.4067"
       id="path3711"
       inkscape:connector-curvature="0"
       sodipodi:nodetypes="cc" />
    <path
       style="fill:none;stroke:#000000;stroke-width:0.27907068px;stroke-linecap:butt;stroke-linejoin:miter;stroke-opacity:1"
       d="M 62.914146,227.77014 81.036517,181.67973"
       id="path3713"
       inkscape:connector-curvature="0"
       sodipodi:nodetypes="cc" />
    <path
       style="fill:none;stroke:#000000;stroke-width:0.27907068px;stroke-linecap:butt;stroke-linejoin:miter;stroke-opacity:1"
       d="m 189.49192,182.23838 c -0.27882,-0.55865 5.85492,14.80483 18.40117,45.53176 L 159.10213,212.4067"
       id="path3715"
       inkscape:connector-curvature="0"
       sodipodi:nodetypes="ccc" />
    <path
       style="opacity:0.75;fill:#0000ff;stroke-width:0.3571474"
       d="m 119.8863,145.97183 c -8.16836,-7.57455 -14.8287,-13.86316 -14.80078,-13.97472 0.17943,-0.71661 6.31446,-21.79362 6.59515,-22.65776 0.19103,-0.58809 5.42043,-18.552058 11.62088,-39.919899 6.20046,-21.367844 11.41822,-39.251605 11.59508,-39.741692 0.19235,-0.533139 0.33285,25.416791 0.34977,64.602516 0.0155,36.021475 -0.0925,65.486835 -0.24016,65.478515 -0.14763,-0.008 -6.9516,-6.21244 -15.11994,-13.78696 z"
       id="path915"
       inkscape:connector-curvature="0" />
    <path
       style="opacity:0.75;fill:#0000ff;stroke-width:0.3571474"
       d="m 124.35965,149.84876 c -5.70801,-5.25573 -12.34493,-11.46808 -14.74872,-13.80518 l -4.37054,-4.24928 11.60664,-39.741687 C 123.23069,70.194672 129.8676,47.43999 131.59576,41.486635 l 3.14207,-10.824286 0.17895,31.675311 c 0.0984,17.421411 0.0984,46.38842 0,64.37116 l -0.17895,32.69586 z"
       id="path917"
       inkscape:connector-curvature="0" />
    <path
       style="opacity:0.75;fill:#0000ff;stroke-width:0.3571474"
       d="m 124.8006,150.14928 c -5.26866,-4.87177 -11.80841,-10.99463 -14.53278,-13.60637 l -4.95343,-4.74861 14.5328,-49.822509 14.53277,-49.82253 0.22274,6.516551 c 0.28722,8.403971 0.28415,103.704308 -0.004,113.150568 l -0.21906,7.19066 z"
       id="path919"
       inkscape:connector-curvature="0" />
    <path
       style="opacity:1;fill:#0000ff;fill-opacity:1;stroke-width:0.3571474"
       d="m 93.225082,185.25002 c -5.904836,-1.62427 -11.05814,-3.06965 -11.451797,-3.21194 -0.393654,-0.14231 -0.972536,-0.2949 -1.286402,-0.3391 -0.313862,-0.0441 -17.390583,-4.63453 -37.948269,-10.20076 L 5.1610078,161.37781 37.501225,161.28688 c 17.787117,-0.05 46.830211,-0.05 64.540205,0 l 32.2,0.0909 -14.55839,13.45515 c -8.0071,7.40033 -14.82017,13.43603 -15.14014,13.41268 -0.31997,-0.0233 -5.412986,-1.37137 -11.317818,-2.99561 z"
       id="path921"
       inkscape:connector-curvature="0" />
    <path
       style="opacity:1;fill:#0000ff;fill-opacity:1;stroke-width:0.3571474"
       d="m 135.66078,227.01933 -0.0283,-65.52387 1.54961,1.36687 c 0.85228,0.75179 7.60038,6.96382 14.99577,13.80452 l 13.44615,12.43757 -0.48065,1.6413 c -0.26437,0.90271 -6.93763,24.01605 -14.82949,51.36296 -7.89183,27.34691 -14.41092,49.88207 -14.48683,50.07812 -0.0758,0.196 -0.15077,-29.12933 -0.1663,-65.16747 z"
       id="path929"
       inkscape:connector-curvature="0" />
    <path
       style="opacity:1;fill:#0000ff;fill-opacity:1;stroke-width:0.3571474"
       d="m 137.42782,159.29322 c 1.77868,-1.703 26.52503,-24.51799 27.43245,-25.29146 0.73756,-0.62867 1.964,-0.32615 51.70116,12.75363 28.0201,7.36869 51.10671,13.46004 51.30353,13.53633 0.19683,0.0762 -29.35148,0.15139 -65.66292,0.16687 l -66.0208,0.0282 z"
       id="path931"
       inkscape:connector-curvature="0" />
    <path
       style="opacity:1;fill:#0000ff;stroke-width:0.3571474"
       d="m 164.47375,130.85074 c -2.66975,-9.33981 -5.89501,-21.49445 -5.7436,-21.64525 0.26218,-0.26112 47.19108,-14.630841 47.32995,-14.492508 0.0921,0.09173 -37.65935,35.135798 -40.27357,37.385248 -0.7668,0.65982 -0.76787,0.65879 -1.31278,-1.24749 z"
       id="path933"
       inkscape:connector-curvature="0" />
    <path
       style="opacity:1;fill:#0000ff;stroke-width:0.3571474"
       d="m 186.47483,207.58389 c -10.71336,-9.94245 -19.53397,-18.24186 -19.6013,-18.44312 -0.15506,-0.46327 22.06579,-6.36412 22.44511,-5.96044 0.27628,0.29402 16.75277,40.71545 17.08283,41.90893 0.095,0.34306 0.0329,0.61207 -0.13764,0.59779 -0.17057,-0.0142 -9.0756,-8.16069 -19.789,-18.10316 z"
       id="path935"
       inkscape:connector-curvature="0" />
    <path
       style="opacity:1;fill:#0000ff;stroke-width:0.3571474"
       d="m 66.389193,225.04131 c 0.981797,-0.95752 9.991093,-9.31907 20.020663,-18.58121 11.51363,-10.63262 18.296974,-16.65868 18.402114,-16.34774 0.0915,0.27088 1.57217,5.35558 3.29016,11.29934 2.09366,7.2434 2.98795,10.85613 2.71214,10.95636 -1.16901,0.42485 -45.804499,14.41424 -45.991012,14.41424 -0.120533,0 0.584141,-0.78345 1.565935,-1.74099 z"
       id="path937"
       inkscape:connector-curvature="0" />
    <path
       style="opacity:1;fill:#0000ff;stroke-width:0.3571474"
       d="m 80.90841,137.22983 c -0.170693,-0.44109 -4.042845,-10.00007 -8.604781,-21.24217 -4.561936,-11.2421 -8.243012,-20.488132 -8.180167,-20.546716 0.06284,-0.0585 8.989424,8.096966 19.836845,18.123416 15.021727,13.88485 19.585153,18.29234 19.145973,18.49175 -0.7484,0.33981 -21.049753,5.97568 -21.525376,5.97568 -0.199174,0 -0.501797,-0.36087 -0.672494,-0.80196 z"
       id="path939"
       inkscape:connector-curvature="0" />
    <path
       style="opacity:0;fill:#ffffff;stroke-width:0.3571474"
       d="m 132.76955,157.54381 c -14.7833,-13.48364 -27.198,-25.40936 -27.198,-26.12676 0,-0.51014 3.30387,-11.9441 18.84126,-65.205447 8.90032,-30.509878 9.75837,-33.41508 9.91521,-33.57128 0.56061,-0.558355 0.79515,100.623167 0.27501,118.644197 l -0.22307,7.72812 z"
       id="path953"
       inkscape:connector-curvature="0" />
    <path
       style="opacity:0.3;fill:#0000ff;stroke-width:0.3571474"
       d="m 135.66078,94.476209 c 0.0154,-35.933202 0.0929,-65.172699 0.1723,-64.976665 0.18043,0.446395 21.53987,77.891906 21.7928,79.016726 0.10176,0.4527 1.69352,6.23029 3.53716,12.8391 l 3.35206,12.01604 -13.96507,12.93392 c -7.6808,7.11363 -14.17936,13.06216 -14.44129,13.21895 -0.39576,0.23686 -0.47148,-10.75684 -0.44796,-65.048071 z"
       id="path955"
       inkscape:connector-curvature="0" />
    <path
       style="opacity:0.3;fill:#0000ff;stroke-width:0.3571474"
       d="m 178.21887,136.04164 c -6.20007,-1.63651 -11.48988,-3.02108 -11.75512,-3.07678 -0.26525,-0.0558 8.6651,-8.556 19.84523,-18.88956 11.1801,-10.33354 20.37452,-18.74144 20.43199,-18.684185 0.13284,0.132304 -16.7199,43.097375 -17.02359,43.400665 -0.12407,0.12382 -5.29843,-1.1136 -11.49851,-2.75014 z"
       id="path957"
       inkscape:connector-curvature="0" />
    <path
       style="opacity:0.3;fill:#0000ff;stroke-width:0.3571474"
       d="m 151.04733,174.8207 -14.46723,-13.44289 32.83637,-0.0909 c 18.06002,-0.05 47.45145,-0.05 65.31432,0 l 32.47794,0.0909 -50.08966,13.36603 c -27.54933,7.35133 -50.43051,13.40064 -50.84709,13.44291 -0.55344,0.0562 -4.65387,-3.54369 -15.22465,-13.36605 z"
       id="path959"
       inkscape:connector-curvature="0" />
    <path
       style="opacity:0.3;fill:#0000ff;stroke-width:0.3571474"
       d="m 182.87117,219.59398 c -12.49857,-3.9339 -22.8386,-7.25519 -22.97787,-7.38068 -0.21165,-0.1907 5.89589,-22.00076 6.26348,-22.36687 0.0974,-0.097 35.95381,32.85371 39.25197,36.07105 0.4876,0.47565 0.72915,0.85676 0.53682,0.84692 -0.19237,-0.009 -10.57584,-3.23654 -23.0744,-7.17042 z"
       id="path961"
       inkscape:connector-curvature="0" />
    <path
       style="opacity:0.3;fill:#0000ff;stroke-width:0.3571474"
       d="m 135.00435,292.26316 c -0.0481,-0.15403 -6.77186,-23.40748 -14.94156,-51.67433 l -14.85398,-51.39434 1.34445,-1.31086 c 0.73943,-0.72099 7.46399,-6.96013 14.94344,-13.86477 l 13.599,-12.55387 0.0915,32.86515 c 0.094,33.78672 -0.0267,98.43191 -0.18269,97.93302 z"
       id="path963"
       inkscape:connector-curvature="0" />
    <path
       style="opacity:0.3;fill:#0000ff;stroke-width:0.3571474"
       d="m 64.058787,225.92849 c 0,-0.22161 16.833115,-43.11168 16.978716,-43.26107 0.160197,-0.16434 23.102567,6.13901 23.102567,6.34738 0,0.18842 -35.856762,33.46868 -38.705211,35.92402 -0.756838,0.65239 -1.376072,1.09776 -1.376072,0.98967 z"
       id="path965"
       inkscape:connector-curvature="0" />
    <path
       style="opacity:0.3;fill:#0000ff;stroke-width:0.3571474"
       d="m 5.0104641,160.12099 c 0.9819822,-0.33967 97.8779559,-27.29959 98.8144859,-27.49371 0.36122,-0.0749 5.87405,4.78085 14.63378,12.8895 7.72983,7.15528 14.55482,13.44416 15.16666,13.97529 l 1.11244,0.96569 -65.311015,-0.0136 c -37.402596,-0.008 -64.9287155,-0.14594 -64.4163509,-0.32317 z"
       id="path967"
       inkscape:connector-curvature="0" />
    <path
       style="opacity:0.3;fill:#0000ff;stroke-width:0.3571474"
       d="M 84.401597,113.14455 C 73.447017,103.01427 64.520847,94.687529 64.565664,94.640733 c 0.129949,-0.135675 45.805836,14.248527 46.126926,14.526237 0.26312,0.22761 -5.68354,21.59052 -6.16727,22.15541 -0.11347,0.13255 -9.169148,-8.0475 -20.123723,-18.17783 z"
       id="path969"
       inkscape:connector-curvature="0" />
  </g>
</svg>
